<svg width="146" height="28" viewBox="0 0 146 28" fill="none" xmlns="http://www.w3.org/2000/svg"><path d="M38.4223 7.34198C36.5423 5.48323 33.6075 5.28827 31.5069 6.75815C31.2602 6.92933 31.0252 7.12482 30.8046 7.34303L28.7687 9.35658L23.8091 4.45295L20.885 1.56022C20.4064 1.08682 19.8531 0.713803 19.2528 0.451741C18.5761 0.155335 17.838 0 17.0764 0C15.6376 0 14.2853 0.554241 13.2678 1.56022L1.5777 13.1237C0.560259 14.1308 0 15.4691 0 16.893C0 18.3169 0.560258 19.6552 1.57876 20.6607C2.62825 21.6989 4.00726 22.2182 5.38681 22.2182C6.76636 22.2182 8.14538 21.6989 9.1954 20.6596L9.21729 20.6379L11.2319 18.6461L16.192 23.5497L18.4789 25.8132L19.115 26.4424C20.165 27.4812 21.544 28 22.9236 28C24.3031 28 25.6832 27.4812 26.7322 26.4424L38.4223 14.8779C39.4397 13.8713 40 12.5325 40 11.1091C39.9989 9.68574 39.4387 8.3469 38.4212 7.34145L38.4223 7.34198ZM10.3437 16.0149L7.42222 18.905C6.3001 20.015 4.47459 20.015 3.3514 18.906C2.8077 18.3676 2.50861 17.6528 2.50861 16.8919C2.50861 16.1311 2.8077 15.4162 3.3514 14.8784L15.0405 3.31488C15.5842 2.77702 16.3073 2.48114 17.0759 2.48114C17.3039 2.48114 17.5282 2.50703 17.744 2.55828C18.2583 2.67821 18.7289 2.93711 19.1113 3.31541L22.0354 6.20708L26.9934 11.1102L24.4094 13.6669H24.4084L22.9215 15.1378L19.9631 12.2102C19.9631 12.2102 19.9615 12.2102 19.9615 12.2092L18.6044 10.8656V10.8645L17.9657 10.2326C17.8487 10.1158 17.7098 10.0249 17.5587 9.96313C17.4081 9.90184 17.2452 9.86908 17.0785 9.86908C16.8211 9.86908 16.5712 9.94781 16.3629 10.0926C16.3479 10.1026 16.3329 10.1142 16.3175 10.1237C16.2731 10.157 16.2315 10.1935 16.192 10.2321L10.3437 16.0149ZM36.6486 13.1237L24.9595 24.6872C23.8374 25.7973 22.0114 25.7973 20.8887 24.6872L20.5811 24.3829L13.0066 16.8925L17.078 12.8648L22.0343 17.7695V17.7706C22.0637 17.7996 22.0947 17.8266 22.1262 17.8525C22.1577 17.8784 22.1908 17.9032 22.225 17.9254C22.2934 17.9703 22.3655 18.0089 22.4419 18.0395C22.5925 18.1013 22.7554 18.1336 22.922 18.1336C23.1719 18.1336 23.4128 18.0601 23.6179 17.9249C23.6446 17.9074 23.6708 17.8884 23.6959 17.8689C23.7354 17.8393 23.7728 17.806 23.8086 17.7706L23.8097 17.7695L29.6579 11.9872L32.5794 9.09716C33.701 7.98709 35.527 7.98709 36.6491 9.09716C37.1928 9.63502 37.4919 10.3494 37.493 11.1107C37.493 11.871 37.1934 12.5864 36.6491 13.1243L36.6486 13.1237Z" fill="url(#paint0_linear_8_1659)"></path><path d="M24.4094 13.6668L26.9934 11.1101L22.0354 6.20703L19.1113 3.31537C18.7294 2.93759 18.2583 2.67817 17.744 2.55824C18.1286 1.76571 18.6402 1.05349 19.2523 0.451172C19.8526 0.713234 20.4064 1.08625 20.8845 1.55965L23.8086 4.45238L28.7681 9.35601L24.4089 13.6668H24.4094Z" fill="url(#paint1_linear_8_1659)"></path><path d="M20.5811 24.383C20.0086 24.9779 19.2924 25.4677 18.479 25.8133L16.192 23.5498L11.2319 18.6462L13.0072 16.8926L20.5817 24.383H20.5811Z" fill="url(#paint2_linear_8_1659)"></path><path d="M52.692 25V17.104C52.692 15.76 53 14.696 53.616 13.94C54.204 13.156 55.044 12.764 56.08 12.764C57.732 12.764 58.572 13.884 58.572 15.76V25H63.612V14.808C63.612 10.692 61.428 8.312 57.648 8.312C55.492 8.312 53.98 9.068 52.832 10.44C52.552 10.776 52.3 10.944 52.104 10.944C51.852 10.944 51.656 10.72 51.544 10.3C51.46 9.936 51.348 9.264 51.32 8.844H47.652V25H52.692ZM74.5779 25.532C78.9459 25.532 81.8579 23.348 82.7259 19.876H77.7419C77.3219 21.08 76.2859 21.696 74.6059 21.696C72.5619 21.696 71.0779 20.436 70.9659 18.42H82.8659C82.9779 18 83.0339 17.104 83.0339 16.516C83.0339 11.728 79.6459 8.312 74.5219 8.312C69.5659 8.312 65.8419 11.924 65.8419 16.964C65.8419 22.088 69.5379 25.532 74.5779 25.532ZM74.6059 12.064C76.5379 12.064 77.9659 13.324 78.0779 15.368H70.9659C71.1619 13.436 72.5619 12.064 74.6059 12.064ZM87.2751 25L90.3831 20.044L93.5471 25H99.5391L93.8831 16.684L99.1471 8.844H93.7711L90.7751 13.632L87.8351 8.844H81.8431L87.3591 16.88L81.8991 25H87.2751ZM108.563 25.224C109.599 25.224 110.831 25.028 111.587 24.776V21.024C110.915 21.22 110.383 21.276 109.739 21.276C108.087 21.276 107.359 20.548 107.359 18.784V12.904H111.391V8.844H107.359V4.448H103.999C103.859 5.54 103.635 6.744 103.383 7.5C103.131 8.368 102.571 8.844 101.311 8.844H99.4909V12.904H102.431V19.288C102.431 23.572 104.419 25.224 108.563 25.224ZM121.144 25.532C125.512 25.532 128.424 23.348 129.292 19.876H124.308C123.888 21.08 122.852 21.696 121.172 21.696C119.128 21.696 117.644 20.436 117.532 18.42H129.432C129.544 18 129.6 17.104 129.6 16.516C129.6 11.728 126.212 8.312 121.088 8.312C116.132 8.312 112.408 11.924 112.408 16.964C112.408 22.088 116.104 25.532 121.144 25.532ZM121.172 12.064C123.104 12.064 124.532 13.324 124.644 15.368H117.532C117.728 13.436 119.128 12.064 121.172 12.064ZM137.075 25V15.928C137.075 15.004 137.215 14.304 137.467 13.8C137.831 13.072 138.391 12.708 139.175 12.708C140.071 12.708 140.631 13.352 140.631 14.388C140.631 14.528 140.631 14.668 140.603 14.808H145.083C145.111 14.556 145.111 14.332 145.111 14.08C145.139 10.58 143.543 8.508 140.827 8.508C139.175 8.508 138.111 9.068 137.187 10.104C136.879 10.412 136.627 10.58 136.431 10.58C136.179 10.58 136.011 10.384 135.899 10.02C135.787 9.656 135.703 9.208 135.675 8.844H132.035V25H137.075Z" fill="white"></path><defs><linearGradient id="paint0_linear_8_1659" x1="4.97553e-07" y1="-3.1118" x2="38.7196" y2="22.162" gradientUnits="userSpaceOnUse"><stop offset="0.5625" stop-color="#448AFF"></stop><stop offset="1" stop-color="#00ECC2"></stop></linearGradient><linearGradient id="paint1_linear_8_1659" x1="25.5551" y1="10.4592" x2="19.1104" y2="4.014" gradientUnits="userSpaceOnUse"><stop stop-color="#0D0E12"></stop><stop offset="1" stop-color="#448AFF" stop-opacity="0"></stop></linearGradient><linearGradient id="paint2_linear_8_1659" x1="12.2585" y1="17.99" x2="17.4876" y2="23.1471" gradientUnits="userSpaceOnUse"><stop offset="0.12" stop-color="#0D0E12"></stop><stop offset="1" stop-color="#00ECC2" stop-opacity="0"></stop></linearGradient></defs></svg>